<mxfile host="app.diagrams.net" modified="2021-06-23T16:11:05.918Z" agent="5.0 (X11; Linux x86_64) AppleWebKit/537.36 (KHTML, like Gecko) Chrome/91.0.4472.114 Safari/537.36" etag="YcwyC0SKGSMiMc0Dkqh6" version="14.8.0" type="github">
  <diagram id="56UQtGPYz2prELN5KWn_" name="Page-1">
    <mxGraphModel dx="970" dy="718" grid="1" gridSize="10" guides="1" tooltips="1" connect="1" arrows="1" fold="1" page="1" pageScale="1" pageWidth="827" pageHeight="1169" math="0" shadow="0">
      <root>
        <mxCell id="0" />
        <mxCell id="1" parent="0" />
        <mxCell id="-NTv5c6Y36OW_fQLhRgR-3" style="edgeStyle=orthogonalEdgeStyle;rounded=0;orthogonalLoop=1;jettySize=auto;html=1;exitX=0.5;exitY=1;exitDx=0;exitDy=0;entryX=0.5;entryY=0;entryDx=0;entryDy=0;" edge="1" parent="1" source="-NTv5c6Y36OW_fQLhRgR-1" target="-NTv5c6Y36OW_fQLhRgR-2">
          <mxGeometry relative="1" as="geometry" />
        </mxCell>
        <mxCell id="-NTv5c6Y36OW_fQLhRgR-1" value="" style="ellipse;whiteSpace=wrap;html=1;aspect=fixed;" vertex="1" parent="1">
          <mxGeometry x="280" y="160" width="40" height="40" as="geometry" />
        </mxCell>
        <mxCell id="-NTv5c6Y36OW_fQLhRgR-7" style="edgeStyle=orthogonalEdgeStyle;rounded=0;orthogonalLoop=1;jettySize=auto;html=1;exitX=0.5;exitY=1;exitDx=0;exitDy=0;entryX=0.5;entryY=0;entryDx=0;entryDy=0;" edge="1" parent="1" source="-NTv5c6Y36OW_fQLhRgR-2" target="-NTv5c6Y36OW_fQLhRgR-5">
          <mxGeometry relative="1" as="geometry" />
        </mxCell>
        <mxCell id="-NTv5c6Y36OW_fQLhRgR-2" value="" style="ellipse;whiteSpace=wrap;html=1;aspect=fixed;" vertex="1" parent="1">
          <mxGeometry x="280" y="240" width="40" height="40" as="geometry" />
        </mxCell>
        <mxCell id="-NTv5c6Y36OW_fQLhRgR-4" style="edgeStyle=orthogonalEdgeStyle;rounded=0;orthogonalLoop=1;jettySize=auto;html=1;exitX=0.5;exitY=1;exitDx=0;exitDy=0;entryX=0.5;entryY=0;entryDx=0;entryDy=0;" edge="1" parent="1" source="-NTv5c6Y36OW_fQLhRgR-5" target="-NTv5c6Y36OW_fQLhRgR-6">
          <mxGeometry relative="1" as="geometry" />
        </mxCell>
        <mxCell id="-NTv5c6Y36OW_fQLhRgR-5" value="" style="ellipse;whiteSpace=wrap;html=1;aspect=fixed;" vertex="1" parent="1">
          <mxGeometry x="280" y="320" width="40" height="40" as="geometry" />
        </mxCell>
        <mxCell id="-NTv5c6Y36OW_fQLhRgR-15" value="" style="edgeStyle=orthogonalEdgeStyle;rounded=0;orthogonalLoop=1;jettySize=auto;html=1;" edge="1" parent="1" source="-NTv5c6Y36OW_fQLhRgR-6" target="-NTv5c6Y36OW_fQLhRgR-9">
          <mxGeometry relative="1" as="geometry" />
        </mxCell>
        <mxCell id="-NTv5c6Y36OW_fQLhRgR-6" value="" style="ellipse;whiteSpace=wrap;html=1;aspect=fixed;" vertex="1" parent="1">
          <mxGeometry x="280" y="400" width="40" height="40" as="geometry" />
        </mxCell>
        <mxCell id="-NTv5c6Y36OW_fQLhRgR-8" style="edgeStyle=orthogonalEdgeStyle;rounded=0;orthogonalLoop=1;jettySize=auto;html=1;exitX=0.5;exitY=1;exitDx=0;exitDy=0;entryX=0.5;entryY=0;entryDx=0;entryDy=0;" edge="1" parent="1" source="-NTv5c6Y36OW_fQLhRgR-9" target="-NTv5c6Y36OW_fQLhRgR-11">
          <mxGeometry relative="1" as="geometry" />
        </mxCell>
        <mxCell id="-NTv5c6Y36OW_fQLhRgR-9" value="" style="ellipse;whiteSpace=wrap;html=1;aspect=fixed;" vertex="1" parent="1">
          <mxGeometry x="280" y="480" width="40" height="40" as="geometry" />
        </mxCell>
        <mxCell id="-NTv5c6Y36OW_fQLhRgR-10" style="edgeStyle=orthogonalEdgeStyle;rounded=0;orthogonalLoop=1;jettySize=auto;html=1;exitX=0.5;exitY=1;exitDx=0;exitDy=0;entryX=0.5;entryY=0;entryDx=0;entryDy=0;" edge="1" parent="1" source="-NTv5c6Y36OW_fQLhRgR-11" target="-NTv5c6Y36OW_fQLhRgR-13">
          <mxGeometry relative="1" as="geometry" />
        </mxCell>
        <mxCell id="-NTv5c6Y36OW_fQLhRgR-11" value="" style="ellipse;whiteSpace=wrap;html=1;aspect=fixed;" vertex="1" parent="1">
          <mxGeometry x="280" y="560" width="40" height="40" as="geometry" />
        </mxCell>
        <mxCell id="-NTv5c6Y36OW_fQLhRgR-12" style="edgeStyle=orthogonalEdgeStyle;rounded=0;orthogonalLoop=1;jettySize=auto;html=1;exitX=0.5;exitY=1;exitDx=0;exitDy=0;entryX=0.5;entryY=0;entryDx=0;entryDy=0;" edge="1" parent="1" source="-NTv5c6Y36OW_fQLhRgR-13" target="-NTv5c6Y36OW_fQLhRgR-14">
          <mxGeometry relative="1" as="geometry" />
        </mxCell>
        <mxCell id="-NTv5c6Y36OW_fQLhRgR-13" value="" style="ellipse;whiteSpace=wrap;html=1;aspect=fixed;" vertex="1" parent="1">
          <mxGeometry x="280" y="640" width="40" height="40" as="geometry" />
        </mxCell>
        <mxCell id="-NTv5c6Y36OW_fQLhRgR-31" style="edgeStyle=orthogonalEdgeStyle;rounded=0;orthogonalLoop=1;jettySize=auto;html=1;exitX=0.5;exitY=1;exitDx=0;exitDy=0;" edge="1" parent="1" source="-NTv5c6Y36OW_fQLhRgR-14" target="-NTv5c6Y36OW_fQLhRgR-17">
          <mxGeometry relative="1" as="geometry" />
        </mxCell>
        <mxCell id="-NTv5c6Y36OW_fQLhRgR-14" value="" style="ellipse;whiteSpace=wrap;html=1;aspect=fixed;" vertex="1" parent="1">
          <mxGeometry x="280" y="720" width="40" height="40" as="geometry" />
        </mxCell>
        <mxCell id="-NTv5c6Y36OW_fQLhRgR-16" style="edgeStyle=orthogonalEdgeStyle;rounded=0;orthogonalLoop=1;jettySize=auto;html=1;exitX=0.5;exitY=1;exitDx=0;exitDy=0;entryX=0.5;entryY=0;entryDx=0;entryDy=0;" edge="1" parent="1" source="-NTv5c6Y36OW_fQLhRgR-17" target="-NTv5c6Y36OW_fQLhRgR-19">
          <mxGeometry relative="1" as="geometry" />
        </mxCell>
        <mxCell id="-NTv5c6Y36OW_fQLhRgR-17" value="" style="ellipse;whiteSpace=wrap;html=1;aspect=fixed;" vertex="1" parent="1">
          <mxGeometry x="280" y="800" width="40" height="40" as="geometry" />
        </mxCell>
        <mxCell id="-NTv5c6Y36OW_fQLhRgR-18" style="edgeStyle=orthogonalEdgeStyle;rounded=0;orthogonalLoop=1;jettySize=auto;html=1;exitX=0.5;exitY=1;exitDx=0;exitDy=0;entryX=0.5;entryY=0;entryDx=0;entryDy=0;" edge="1" parent="1" source="-NTv5c6Y36OW_fQLhRgR-19" target="-NTv5c6Y36OW_fQLhRgR-21">
          <mxGeometry relative="1" as="geometry" />
        </mxCell>
        <mxCell id="-NTv5c6Y36OW_fQLhRgR-19" value="" style="ellipse;whiteSpace=wrap;html=1;aspect=fixed;" vertex="1" parent="1">
          <mxGeometry x="280" y="880" width="40" height="40" as="geometry" />
        </mxCell>
        <mxCell id="-NTv5c6Y36OW_fQLhRgR-20" style="edgeStyle=orthogonalEdgeStyle;rounded=0;orthogonalLoop=1;jettySize=auto;html=1;exitX=0.5;exitY=1;exitDx=0;exitDy=0;entryX=0.5;entryY=0;entryDx=0;entryDy=0;" edge="1" parent="1" source="-NTv5c6Y36OW_fQLhRgR-21" target="-NTv5c6Y36OW_fQLhRgR-23">
          <mxGeometry relative="1" as="geometry" />
        </mxCell>
        <mxCell id="-NTv5c6Y36OW_fQLhRgR-21" value="" style="ellipse;whiteSpace=wrap;html=1;aspect=fixed;" vertex="1" parent="1">
          <mxGeometry x="280" y="960" width="40" height="40" as="geometry" />
        </mxCell>
        <mxCell id="-NTv5c6Y36OW_fQLhRgR-22" value="" style="edgeStyle=orthogonalEdgeStyle;rounded=0;orthogonalLoop=1;jettySize=auto;html=1;" edge="1" parent="1" source="-NTv5c6Y36OW_fQLhRgR-23" target="-NTv5c6Y36OW_fQLhRgR-25">
          <mxGeometry relative="1" as="geometry" />
        </mxCell>
        <mxCell id="-NTv5c6Y36OW_fQLhRgR-23" value="" style="ellipse;whiteSpace=wrap;html=1;aspect=fixed;" vertex="1" parent="1">
          <mxGeometry x="280" y="1040" width="40" height="40" as="geometry" />
        </mxCell>
        <mxCell id="-NTv5c6Y36OW_fQLhRgR-24" style="edgeStyle=orthogonalEdgeStyle;rounded=0;orthogonalLoop=1;jettySize=auto;html=1;exitX=0.5;exitY=1;exitDx=0;exitDy=0;entryX=0.5;entryY=0;entryDx=0;entryDy=0;" edge="1" parent="1" source="-NTv5c6Y36OW_fQLhRgR-25" target="-NTv5c6Y36OW_fQLhRgR-27">
          <mxGeometry relative="1" as="geometry" />
        </mxCell>
        <mxCell id="-NTv5c6Y36OW_fQLhRgR-25" value="" style="ellipse;whiteSpace=wrap;html=1;aspect=fixed;" vertex="1" parent="1">
          <mxGeometry x="280" y="1120" width="40" height="40" as="geometry" />
        </mxCell>
        <mxCell id="-NTv5c6Y36OW_fQLhRgR-26" style="edgeStyle=orthogonalEdgeStyle;rounded=0;orthogonalLoop=1;jettySize=auto;html=1;exitX=0.5;exitY=1;exitDx=0;exitDy=0;entryX=0.5;entryY=0;entryDx=0;entryDy=0;" edge="1" parent="1" source="-NTv5c6Y36OW_fQLhRgR-27" target="-NTv5c6Y36OW_fQLhRgR-29">
          <mxGeometry relative="1" as="geometry" />
        </mxCell>
        <mxCell id="-NTv5c6Y36OW_fQLhRgR-27" value="" style="ellipse;whiteSpace=wrap;html=1;aspect=fixed;" vertex="1" parent="1">
          <mxGeometry x="280" y="1200" width="40" height="40" as="geometry" />
        </mxCell>
        <mxCell id="-NTv5c6Y36OW_fQLhRgR-28" style="edgeStyle=orthogonalEdgeStyle;rounded=0;orthogonalLoop=1;jettySize=auto;html=1;exitX=0.5;exitY=1;exitDx=0;exitDy=0;entryX=0.5;entryY=0;entryDx=0;entryDy=0;" edge="1" parent="1" source="-NTv5c6Y36OW_fQLhRgR-29" target="-NTv5c6Y36OW_fQLhRgR-30">
          <mxGeometry relative="1" as="geometry" />
        </mxCell>
        <mxCell id="-NTv5c6Y36OW_fQLhRgR-29" value="" style="ellipse;whiteSpace=wrap;html=1;aspect=fixed;" vertex="1" parent="1">
          <mxGeometry x="280" y="1280" width="40" height="40" as="geometry" />
        </mxCell>
        <mxCell id="-NTv5c6Y36OW_fQLhRgR-63" style="edgeStyle=orthogonalEdgeStyle;rounded=0;orthogonalLoop=1;jettySize=auto;html=1;exitX=0.5;exitY=1;exitDx=0;exitDy=0;entryX=0.5;entryY=0;entryDx=0;entryDy=0;" edge="1" parent="1" source="-NTv5c6Y36OW_fQLhRgR-30" target="-NTv5c6Y36OW_fQLhRgR-33">
          <mxGeometry relative="1" as="geometry" />
        </mxCell>
        <mxCell id="-NTv5c6Y36OW_fQLhRgR-30" value="" style="ellipse;whiteSpace=wrap;html=1;aspect=fixed;" vertex="1" parent="1">
          <mxGeometry x="280" y="1360" width="40" height="40" as="geometry" />
        </mxCell>
        <mxCell id="-NTv5c6Y36OW_fQLhRgR-32" style="edgeStyle=orthogonalEdgeStyle;rounded=0;orthogonalLoop=1;jettySize=auto;html=1;exitX=0.5;exitY=1;exitDx=0;exitDy=0;entryX=0.5;entryY=0;entryDx=0;entryDy=0;" edge="1" parent="1" source="-NTv5c6Y36OW_fQLhRgR-33" target="-NTv5c6Y36OW_fQLhRgR-35">
          <mxGeometry relative="1" as="geometry" />
        </mxCell>
        <mxCell id="-NTv5c6Y36OW_fQLhRgR-33" value="" style="ellipse;whiteSpace=wrap;html=1;aspect=fixed;" vertex="1" parent="1">
          <mxGeometry x="280" y="1430" width="40" height="40" as="geometry" />
        </mxCell>
        <mxCell id="-NTv5c6Y36OW_fQLhRgR-34" style="edgeStyle=orthogonalEdgeStyle;rounded=0;orthogonalLoop=1;jettySize=auto;html=1;exitX=0.5;exitY=1;exitDx=0;exitDy=0;entryX=0.5;entryY=0;entryDx=0;entryDy=0;" edge="1" parent="1" source="-NTv5c6Y36OW_fQLhRgR-35" target="-NTv5c6Y36OW_fQLhRgR-37">
          <mxGeometry relative="1" as="geometry" />
        </mxCell>
        <mxCell id="-NTv5c6Y36OW_fQLhRgR-35" value="" style="ellipse;whiteSpace=wrap;html=1;aspect=fixed;" vertex="1" parent="1">
          <mxGeometry x="280" y="1510" width="40" height="40" as="geometry" />
        </mxCell>
        <mxCell id="-NTv5c6Y36OW_fQLhRgR-36" style="edgeStyle=orthogonalEdgeStyle;rounded=0;orthogonalLoop=1;jettySize=auto;html=1;exitX=0.5;exitY=1;exitDx=0;exitDy=0;entryX=0.5;entryY=0;entryDx=0;entryDy=0;" edge="1" parent="1" source="-NTv5c6Y36OW_fQLhRgR-37" target="-NTv5c6Y36OW_fQLhRgR-39">
          <mxGeometry relative="1" as="geometry" />
        </mxCell>
        <mxCell id="-NTv5c6Y36OW_fQLhRgR-37" value="" style="ellipse;whiteSpace=wrap;html=1;aspect=fixed;" vertex="1" parent="1">
          <mxGeometry x="280" y="1590" width="40" height="40" as="geometry" />
        </mxCell>
        <mxCell id="-NTv5c6Y36OW_fQLhRgR-38" value="" style="edgeStyle=orthogonalEdgeStyle;rounded=0;orthogonalLoop=1;jettySize=auto;html=1;" edge="1" parent="1" source="-NTv5c6Y36OW_fQLhRgR-39" target="-NTv5c6Y36OW_fQLhRgR-41">
          <mxGeometry relative="1" as="geometry" />
        </mxCell>
        <mxCell id="-NTv5c6Y36OW_fQLhRgR-39" value="" style="ellipse;whiteSpace=wrap;html=1;aspect=fixed;" vertex="1" parent="1">
          <mxGeometry x="280" y="1670" width="40" height="40" as="geometry" />
        </mxCell>
        <mxCell id="-NTv5c6Y36OW_fQLhRgR-40" style="edgeStyle=orthogonalEdgeStyle;rounded=0;orthogonalLoop=1;jettySize=auto;html=1;exitX=0.5;exitY=1;exitDx=0;exitDy=0;entryX=0.5;entryY=0;entryDx=0;entryDy=0;" edge="1" parent="1" source="-NTv5c6Y36OW_fQLhRgR-41" target="-NTv5c6Y36OW_fQLhRgR-43">
          <mxGeometry relative="1" as="geometry" />
        </mxCell>
        <mxCell id="-NTv5c6Y36OW_fQLhRgR-41" value="" style="ellipse;whiteSpace=wrap;html=1;aspect=fixed;" vertex="1" parent="1">
          <mxGeometry x="280" y="1750" width="40" height="40" as="geometry" />
        </mxCell>
        <mxCell id="-NTv5c6Y36OW_fQLhRgR-42" style="edgeStyle=orthogonalEdgeStyle;rounded=0;orthogonalLoop=1;jettySize=auto;html=1;exitX=0.5;exitY=1;exitDx=0;exitDy=0;entryX=0.5;entryY=0;entryDx=0;entryDy=0;" edge="1" parent="1" source="-NTv5c6Y36OW_fQLhRgR-43" target="-NTv5c6Y36OW_fQLhRgR-45">
          <mxGeometry relative="1" as="geometry" />
        </mxCell>
        <mxCell id="-NTv5c6Y36OW_fQLhRgR-43" value="" style="ellipse;whiteSpace=wrap;html=1;aspect=fixed;" vertex="1" parent="1">
          <mxGeometry x="280" y="1830" width="40" height="40" as="geometry" />
        </mxCell>
        <mxCell id="-NTv5c6Y36OW_fQLhRgR-44" style="edgeStyle=orthogonalEdgeStyle;rounded=0;orthogonalLoop=1;jettySize=auto;html=1;exitX=0.5;exitY=1;exitDx=0;exitDy=0;entryX=0.5;entryY=0;entryDx=0;entryDy=0;" edge="1" parent="1" source="-NTv5c6Y36OW_fQLhRgR-45" target="-NTv5c6Y36OW_fQLhRgR-47">
          <mxGeometry relative="1" as="geometry" />
        </mxCell>
        <mxCell id="-NTv5c6Y36OW_fQLhRgR-45" value="" style="ellipse;whiteSpace=wrap;html=1;aspect=fixed;" vertex="1" parent="1">
          <mxGeometry x="280" y="1910" width="40" height="40" as="geometry" />
        </mxCell>
        <mxCell id="-NTv5c6Y36OW_fQLhRgR-46" style="edgeStyle=orthogonalEdgeStyle;rounded=0;orthogonalLoop=1;jettySize=auto;html=1;exitX=0.5;exitY=1;exitDx=0;exitDy=0;" edge="1" parent="1" source="-NTv5c6Y36OW_fQLhRgR-47" target="-NTv5c6Y36OW_fQLhRgR-49">
          <mxGeometry relative="1" as="geometry" />
        </mxCell>
        <mxCell id="-NTv5c6Y36OW_fQLhRgR-47" value="" style="ellipse;whiteSpace=wrap;html=1;aspect=fixed;" vertex="1" parent="1">
          <mxGeometry x="280" y="1990" width="40" height="40" as="geometry" />
        </mxCell>
        <mxCell id="-NTv5c6Y36OW_fQLhRgR-48" style="edgeStyle=orthogonalEdgeStyle;rounded=0;orthogonalLoop=1;jettySize=auto;html=1;exitX=0.5;exitY=1;exitDx=0;exitDy=0;entryX=0.5;entryY=0;entryDx=0;entryDy=0;" edge="1" parent="1" source="-NTv5c6Y36OW_fQLhRgR-49" target="-NTv5c6Y36OW_fQLhRgR-51">
          <mxGeometry relative="1" as="geometry" />
        </mxCell>
        <mxCell id="-NTv5c6Y36OW_fQLhRgR-49" value="" style="ellipse;whiteSpace=wrap;html=1;aspect=fixed;" vertex="1" parent="1">
          <mxGeometry x="280" y="2070" width="40" height="40" as="geometry" />
        </mxCell>
        <mxCell id="-NTv5c6Y36OW_fQLhRgR-50" style="edgeStyle=orthogonalEdgeStyle;rounded=0;orthogonalLoop=1;jettySize=auto;html=1;exitX=0.5;exitY=1;exitDx=0;exitDy=0;entryX=0.5;entryY=0;entryDx=0;entryDy=0;" edge="1" parent="1" source="-NTv5c6Y36OW_fQLhRgR-51" target="-NTv5c6Y36OW_fQLhRgR-53">
          <mxGeometry relative="1" as="geometry" />
        </mxCell>
        <mxCell id="-NTv5c6Y36OW_fQLhRgR-51" value="" style="ellipse;whiteSpace=wrap;html=1;aspect=fixed;" vertex="1" parent="1">
          <mxGeometry x="280" y="2150" width="40" height="40" as="geometry" />
        </mxCell>
        <mxCell id="-NTv5c6Y36OW_fQLhRgR-52" style="edgeStyle=orthogonalEdgeStyle;rounded=0;orthogonalLoop=1;jettySize=auto;html=1;exitX=0.5;exitY=1;exitDx=0;exitDy=0;entryX=0.5;entryY=0;entryDx=0;entryDy=0;" edge="1" parent="1" source="-NTv5c6Y36OW_fQLhRgR-53" target="-NTv5c6Y36OW_fQLhRgR-55">
          <mxGeometry relative="1" as="geometry" />
        </mxCell>
        <mxCell id="-NTv5c6Y36OW_fQLhRgR-53" value="" style="ellipse;whiteSpace=wrap;html=1;aspect=fixed;" vertex="1" parent="1">
          <mxGeometry x="280" y="2230" width="40" height="40" as="geometry" />
        </mxCell>
        <mxCell id="-NTv5c6Y36OW_fQLhRgR-54" value="" style="edgeStyle=orthogonalEdgeStyle;rounded=0;orthogonalLoop=1;jettySize=auto;html=1;" edge="1" parent="1" source="-NTv5c6Y36OW_fQLhRgR-55" target="-NTv5c6Y36OW_fQLhRgR-57">
          <mxGeometry relative="1" as="geometry" />
        </mxCell>
        <mxCell id="-NTv5c6Y36OW_fQLhRgR-55" value="" style="ellipse;whiteSpace=wrap;html=1;aspect=fixed;" vertex="1" parent="1">
          <mxGeometry x="280" y="2310" width="40" height="40" as="geometry" />
        </mxCell>
        <mxCell id="-NTv5c6Y36OW_fQLhRgR-56" style="edgeStyle=orthogonalEdgeStyle;rounded=0;orthogonalLoop=1;jettySize=auto;html=1;exitX=0.5;exitY=1;exitDx=0;exitDy=0;entryX=0.5;entryY=0;entryDx=0;entryDy=0;" edge="1" parent="1" source="-NTv5c6Y36OW_fQLhRgR-57" target="-NTv5c6Y36OW_fQLhRgR-59">
          <mxGeometry relative="1" as="geometry" />
        </mxCell>
        <mxCell id="-NTv5c6Y36OW_fQLhRgR-57" value="" style="ellipse;whiteSpace=wrap;html=1;aspect=fixed;" vertex="1" parent="1">
          <mxGeometry x="280" y="2390" width="40" height="40" as="geometry" />
        </mxCell>
        <mxCell id="-NTv5c6Y36OW_fQLhRgR-58" style="edgeStyle=orthogonalEdgeStyle;rounded=0;orthogonalLoop=1;jettySize=auto;html=1;exitX=0.5;exitY=1;exitDx=0;exitDy=0;entryX=0.5;entryY=0;entryDx=0;entryDy=0;" edge="1" parent="1" source="-NTv5c6Y36OW_fQLhRgR-59" target="-NTv5c6Y36OW_fQLhRgR-61">
          <mxGeometry relative="1" as="geometry" />
        </mxCell>
        <mxCell id="-NTv5c6Y36OW_fQLhRgR-59" value="" style="ellipse;whiteSpace=wrap;html=1;aspect=fixed;" vertex="1" parent="1">
          <mxGeometry x="280" y="2470" width="40" height="40" as="geometry" />
        </mxCell>
        <mxCell id="-NTv5c6Y36OW_fQLhRgR-60" style="edgeStyle=orthogonalEdgeStyle;rounded=0;orthogonalLoop=1;jettySize=auto;html=1;exitX=0.5;exitY=1;exitDx=0;exitDy=0;entryX=0.5;entryY=0;entryDx=0;entryDy=0;" edge="1" parent="1" source="-NTv5c6Y36OW_fQLhRgR-61" target="-NTv5c6Y36OW_fQLhRgR-62">
          <mxGeometry relative="1" as="geometry" />
        </mxCell>
        <mxCell id="-NTv5c6Y36OW_fQLhRgR-61" value="" style="ellipse;whiteSpace=wrap;html=1;aspect=fixed;" vertex="1" parent="1">
          <mxGeometry x="280" y="2550" width="40" height="40" as="geometry" />
        </mxCell>
        <mxCell id="-NTv5c6Y36OW_fQLhRgR-62" value="" style="ellipse;whiteSpace=wrap;html=1;aspect=fixed;" vertex="1" parent="1">
          <mxGeometry x="280" y="2630" width="40" height="40" as="geometry" />
        </mxCell>
      </root>
    </mxGraphModel>
  </diagram>
</mxfile>
